<svg version="1.1" id="Layer_1" xmlns="http://www.w3.org/2000/svg" xmlns:xlink="http://www.w3.org/1999/xlink" x="0px" y="0px"
	 width="100%" viewBox="0 0 655 124" enable-background="new 0 0 655 124" xml:space="preserve">
<path fill="#FFFEFF" opacity="1.000000" stroke="none" 
	d="
M488.000000,125.000000 
	C325.333374,125.000000 163.166718,125.000000 1.000065,125.000000 
	C1.000044,83.666702 1.000044,42.333405 1.000022,1.000082 
	C219.333252,1.000055 437.666504,1.000055 655.999817,1.000027 
	C655.999878,42.333248 655.999878,83.666496 655.999939,124.999878 
	C600.166687,125.000000 544.333313,125.000000 488.000000,125.000000 
M402.051575,74.090988 
	C395.812866,73.634384 389.574158,73.177780 383.346680,72.722000 
	C383.346680,76.060143 383.346680,80.333717 383.346680,85.883926 
	C390.389252,86.098213 397.238251,86.306618 404.916962,86.497849 
	C407.137909,85.950104 409.413910,85.562958 411.569275,84.823944 
	C417.593536,82.758408 421.533936,77.233658 421.689789,70.896904 
	C421.842621,64.680656 418.780426,60.406036 412.207764,57.916626 
	C409.902496,57.043503 407.487793,56.459347 404.655151,55.273464 
	C401.653015,53.872047 401.097168,52.171211 404.872253,50.057808 
	C409.170624,50.689514 413.468994,51.321220 417.770233,51.953350 
	C419.178558,39.108398 418.056000,37.866592 405.482605,38.013668 
	C404.988129,38.019455 404.494568,38.105324 403.157684,38.028706 
	C399.312531,38.912624 395.292633,39.352543 391.662109,40.781700 
	C385.820038,43.081417 383.047455,47.852448 383.133850,54.132710 
	C383.220581,60.435116 386.814850,64.215271 392.394867,66.392769 
	C395.788300,67.716980 399.229858,68.917786 402.874664,70.900772 
	C402.855957,71.900833 402.837250,72.900894 402.051575,74.090988 
M132.629013,86.480377 
	C135.763504,86.362282 138.898010,86.244194 142.780609,86.123856 
	C148.134933,84.733871 151.825897,81.341995 154.240692,76.482353 
	C158.706833,67.494461 159.022369,58.174835 155.724625,48.851196 
	C153.502670,42.569054 148.956055,38.695679 141.150269,38.056374 
	C134.560989,37.450939 129.199097,40.428982 124.123413,43.002666 
	C124.123413,34.100277 124.123413,25.197891 124.123413,16.343109 
	C117.305679,16.343109 111.238701,16.343109 105.239334,16.343109 
	C105.239334,39.698509 105.239334,62.707882 105.239334,85.989548 
	C110.942619,85.989548 116.255081,86.124619 121.546654,85.852791 
	C122.400238,85.808937 123.160767,83.953583 124.685829,82.643318 
	C127.125069,83.758636 129.564301,84.873955 132.629013,86.480377 
M356.082916,39.018364 
	C352.309631,39.018364 348.536316,39.018364 344.676056,39.018364 
	C344.676056,54.975719 344.676056,70.346252 344.676056,85.848785 
	C349.042969,85.848785 353.023621,85.848785 357.896515,85.972847 
	C359.821259,85.972847 361.746033,85.972847 364.011292,85.972847 
	C364.011292,78.374954 363.867096,71.398582 364.049957,64.430794 
	C364.251709,56.742683 368.556244,53.195423 376.080444,54.169773 
	C377.184113,54.312695 378.283936,54.485214 379.600586,54.675041 
	C379.600586,49.118877 379.600586,43.867992 379.600586,38.425396 
	C372.599670,36.887424 368.076660,40.252136 364.215485,45.944805 
	C364.030457,43.178467 363.901428,41.249374 363.761078,39.151211 
	C361.274933,39.151211 359.139618,39.151211 356.082916,39.018364 
M264.907745,85.968483 
	C266.402985,85.979881 267.939026,85.772850 269.385895,86.043182 
	C273.925598,86.891403 275.763580,84.687103 276.974182,80.574089 
	C278.937683,73.903107 281.515533,67.414482 283.777039,60.829304 
	C286.220612,53.713997 288.598816,46.576248 291.158142,38.996399 
	C285.417572,38.996399 280.427429,39.239571 275.474548,38.914471 
	C271.926331,38.681568 270.586212,39.917786 269.930023,43.367603 
	C268.170044,52.620480 266.005341,61.796379 263.329376,70.603531 
	C261.216949,60.896812 259.155548,51.178261 256.912476,41.501827 
	C256.689941,40.541786 255.381729,39.155071 254.537735,39.126205 
	C248.525238,38.920574 242.502441,39.016556 236.010773,39.016556 
	C240.192642,51.600571 244.114624,63.378986 248.020508,75.162743 
	C251.770386,86.475845 251.763046,86.478279 264.907745,85.968483 
M212.219101,55.412243 
	C207.660828,56.200237 202.993851,56.605396 198.568573,57.861828 
	C191.069458,59.990993 187.273163,65.112022 187.117004,72.266273 
	C186.975586,78.744789 190.276413,84.017105 195.761749,86.074249 
	C202.697342,88.675278 209.551865,86.714737 215.054550,80.421852 
	C215.551697,82.144325 216.048843,83.866791 216.563812,85.650986 
	C222.257339,85.650986 227.971741,85.650986 233.672775,85.650986 
	C233.814499,84.831802 233.969986,84.353432 233.969177,83.875320 
	C233.954834,75.399796 234.045624,66.921631 233.863602,58.449417 
	C233.578568,45.182957 228.401459,39.730610 214.103943,38.047379 
	C207.856064,38.786469 201.579910,39.357388 195.382904,40.399063 
	C194.059830,40.621460 192.233368,42.421398 192.015472,43.724716 
	C191.513092,46.729843 191.856064,49.876293 191.856064,51.839775 
	C199.667862,51.586136 206.810745,51.354218 214.288177,51.710468 
	C214.843903,52.607880 215.399628,53.505291 216.065872,54.581192 
	C214.811325,54.952934 213.915726,55.218311 212.219101,55.412243 
M315.185089,38.033844 
	C300.600647,39.271885 292.007996,48.594543 291.998474,63.190365 
	C291.989258,77.304474 299.674683,85.522911 314.907837,86.925255 
	C320.637268,86.365662 326.388947,85.957230 332.077484,85.119896 
	C333.225800,84.950867 334.866577,83.250870 335.014130,82.095062 
	C335.420197,78.913902 335.154388,75.646980 335.154388,73.010513 
	C327.974152,73.010513 321.485260,73.010513 314.545258,72.499603 
	C313.037415,71.632599 311.529572,70.765587 310.021729,69.898575 
	C310.460388,69.350113 310.899048,68.801651 311.337708,68.253189 
	C312.892212,68.115936 314.446747,67.978683 316.930725,67.970619 
	C324.508209,67.970619 332.085693,67.970619 339.579041,67.970619 
	C341.744049,48.240303 332.988037,37.428177 315.185089,38.033844 
M449.160431,38.026493 
	C433.462311,38.647850 424.715149,48.487377 425.000183,65.203972 
	C425.220917,78.149956 434.821838,86.805641 449.910553,86.971970 
	C451.889862,86.946823 453.873657,86.998390 455.847778,86.883949 
	C467.756104,86.193649 468.864319,84.943565 468.030151,73.251305 
	C468.009613,72.963394 467.727631,72.694130 468.049469,73.253075 
	C461.371643,73.253075 455.185913,73.253075 448.378754,72.911324 
	C446.863708,71.668358 445.348663,70.425392 442.799438,68.333961 
	C446.244293,68.098022 448.123291,67.969337 450.931427,67.970673 
	C458.177826,67.970673 465.424225,67.970673 472.591766,67.970673 
	C474.666687,48.607143 466.286194,37.799755 449.160431,38.026493 
M77.264267,20.760818 
	C70.085251,18.399538 62.914165,17.993835 55.022533,20.885162 
	C38.496380,26.333698 29.229387,44.253632 33.747993,62.357105 
	C36.662491,74.033829 43.497604,82.156952 56.173637,85.759628 
	C63.547325,87.699928 70.832634,87.669022 78.676857,84.718719 
	C94.345482,77.389832 101.972206,62.426872 98.541809,45.488647 
	C96.143814,33.648117 90.193092,24.694698 77.264267,20.760818 
M542.057678,40.112434 
	C539.994873,34.152843 538.013306,28.162630 535.787842,22.264412 
	C535.425354,21.303822 534.000854,20.131784 533.040039,20.106956 
	C525.968201,19.924210 518.889404,20.008202 511.011688,20.008202 
	C515.818115,28.868109 519.864624,37.243504 524.777527,45.075474 
	C528.310059,50.706917 528.386292,55.126907 524.504395,60.700954 
	C519.059875,68.518867 514.597961,77.021187 509.259003,85.998718 
	C517.077026,85.998718 523.853271,86.132828 530.614197,85.871590 
	C531.791870,85.826096 533.450684,84.342430 533.957642,83.133232 
	C536.778320,76.406013 539.312317,69.558632 542.541321,63.237988 
	C545.365601,70.138550 548.139648,77.060661 551.076721,83.912888 
	C551.451599,84.787521 552.663879,85.867783 553.510010,85.886909 
	C560.524231,86.045525 567.543518,85.976753 575.290955,85.976753 
	C569.619141,76.237228 564.648926,67.231415 559.188904,58.533085 
	C556.611633,54.427216 556.350525,51.262852 559.053772,46.970024 
	C564.415833,38.454857 569.052307,29.482750 574.384277,19.995558 
	C567.620483,19.995558 561.689514,20.158390 555.774109,19.925163 
	C552.922180,19.812716 551.689636,20.912748 550.727295,23.454224 
	C548.730530,28.727335 546.428589,33.888126 544.125977,39.038670 
	C543.780579,39.811310 542.753479,40.279205 542.057678,40.112434 
M600.205627,69.907043 
	C599.857422,68.237144 599.217773,66.569092 599.207153,64.897057 
	C599.123840,51.763149 599.160950,38.628483 599.160950,25.494049 
	C599.160950,23.754204 599.160950,22.014359 599.160950,20.356163 
	C592.128601,20.356163 585.909790,20.356163 579.695312,20.356163 
	C579.695312,42.391872 579.695312,64.059402 579.695312,85.839981 
	C587.065186,85.839981 594.033447,85.839981 601.931091,85.968468 
	C608.493713,85.968468 615.056274,85.968468 621.644104,85.968468 
	C621.644104,80.348877 621.644104,75.325752 621.644104,70.160004 
	C614.528687,70.160004 607.765259,70.160004 600.205627,69.907043 
M162.990341,70.499741 
	C162.990341,75.497246 162.994797,80.494766 162.989365,85.492264 
	C162.979736,94.329544 162.379364,94.940704 153.834885,94.496025 
	C153.834885,97.658623 154.064789,100.828804 153.771912,103.949936 
	C153.462875,107.243355 155.100204,108.321190 157.925873,108.823685 
	C170.361832,111.035248 180.845444,104.251915 181.889359,91.686348 
	C183.016190,78.122658 182.517456,64.423088 182.701355,50.782433 
	C182.752335,47.000996 182.709106,43.218292 182.709106,39.304626 
	C175.847122,39.304626 169.618713,39.304626 162.990341,39.304626 
	C162.990341,49.574764 162.990341,59.537304 162.990341,70.499741 
M492.494751,68.010384 
	C496.412415,68.010384 500.330048,68.010384 504.297485,68.010384 
	C504.297485,63.327461 504.297485,59.297398 504.297485,55.401882 
	C495.712250,55.401882 487.523529,55.401882 479.396942,55.401882 
	C479.396942,59.733734 479.396942,63.644230 479.396942,68.010651 
	C483.619781,68.010651 487.561249,68.010651 492.494751,68.010384 
M170.028763,17.102285 
	C163.684494,19.216888 161.528671,21.774355 161.919662,26.722210 
	C162.252335,30.931932 165.817322,34.306690 170.588531,34.928532 
	C177.585846,35.840508 183.227097,32.277409 183.752075,26.614246 
	C184.279739,20.921930 179.534760,17.085018 171.857803,16.999460 
	C171.525589,16.995758 171.193069,17.019176 170.028763,17.102285 
z"/>
<path fill="#D65497" opacity="1.000000" stroke="none" 
	d="
M162.990341,69.999794 
	C162.990341,59.537304 162.990341,49.574764 162.990341,39.304626 
	C169.618713,39.304626 175.847122,39.304626 182.709106,39.304626 
	C182.709106,43.218292 182.752335,47.000996 182.701355,50.782433 
	C182.517456,64.423088 183.016190,78.122658 181.889359,91.686348 
	C180.845444,104.251915 170.361832,111.035248 157.925873,108.823685 
	C155.100204,108.321190 153.462875,107.243355 153.771912,103.949936 
	C154.064789,100.828804 153.834885,97.658623 153.834885,94.496025 
	C162.379364,94.940704 162.979736,94.329544 162.989365,85.492264 
	C162.994797,80.494766 162.990341,75.497246 162.990341,69.999794 
z"/>
<path fill="#4C92F0" opacity="1.000000" stroke="none" 
	d="
M601.001770,85.839981 
	C594.033447,85.839981 587.065186,85.839981 579.695312,85.839981 
	C579.695312,64.059402 579.695312,42.391872 579.695312,20.356163 
	C585.909790,20.356163 592.128601,20.356163 599.160950,20.356163 
	C599.160950,22.014359 599.160950,23.754204 599.160950,25.494049 
	C599.160950,38.628483 599.123840,51.763149 599.207153,64.897057 
	C599.217773,66.569092 599.857422,68.237144 600.602783,70.488770 
	C601.000549,75.993660 601.001160,80.916824 601.001770,85.839981 
z"/>
<path fill="#527BE5" opacity="1.000000" stroke="none" 
	d="
M541.944397,62.752350 
	C539.312317,69.558632 536.778320,76.406013 533.957642,83.133232 
	C533.450684,84.342430 531.791870,85.826096 530.614197,85.871590 
	C523.853271,86.132828 517.077026,85.998718 509.259003,85.998718 
	C514.597961,77.021187 519.059875,68.518867 524.504395,60.700954 
	C528.386292,55.126907 528.310059,50.706917 524.777527,45.075474 
	C519.864624,37.243504 515.818115,28.868109 511.011688,20.008202 
	C518.889404,20.008202 525.968201,19.924210 533.040039,20.106956 
	C534.000854,20.131784 535.425354,21.303822 535.787842,22.264412 
	C538.013306,28.162630 539.994873,34.152843 542.042114,40.932484 
	C541.999084,48.752472 541.971741,55.752407 541.944397,62.752350 
z"/>
<path fill="#DD567A" opacity="1.000000" stroke="none" 
	d="
M123.964302,82.935600 
	C123.160767,83.953583 122.400238,85.808937 121.546654,85.852791 
	C116.255081,86.124619 110.942619,85.989548 105.239334,85.989548 
	C105.239334,62.707882 105.239334,39.698509 105.239334,16.343109 
	C111.238701,16.343109 117.305679,16.343109 124.123413,16.343109 
	C124.123413,25.197891 124.123413,34.100277 124.222939,43.817699 
	C124.886452,47.771023 125.450439,50.909313 125.874306,54.402386 
	C125.357254,59.442619 124.980331,64.128067 124.221436,69.041618 
	C123.881073,73.825012 123.922684,78.380302 123.964302,82.935600 
z"/>
<path fill="#4F85EA" opacity="1.000000" stroke="none" 
	d="
M542.242859,62.995167 
	C541.971741,55.752407 541.999084,48.752472 542.034119,41.320305 
	C542.753479,40.279205 543.780579,39.811310 544.125977,39.038670 
	C546.428589,33.888126 548.730530,28.727335 550.727295,23.454224 
	C551.689636,20.912748 552.922180,19.812716 555.774109,19.925163 
	C561.689514,20.158390 567.620483,19.995558 574.384277,19.995558 
	C569.052307,29.482750 564.415833,38.454857 559.053772,46.970024 
	C556.350525,51.262852 556.611633,54.427216 559.188904,58.533085 
	C564.648926,67.231415 569.619141,76.237228 575.290955,85.976753 
	C567.543518,85.976753 560.524231,86.045525 553.510010,85.886909 
	C552.663879,85.867783 551.451599,84.787521 551.076721,83.912888 
	C548.139648,77.060661 545.365601,70.138550 542.242859,62.995167 
z"/>
<path fill="#E65E5B" opacity="1.000000" stroke="none" 
	d="
M55.521378,85.259361 
	C43.497604,82.156952 36.662491,74.033829 33.747993,62.357105 
	C29.229387,44.253632 38.496380,26.333698 55.723969,21.148586 
	C56.956699,27.295843 57.488003,33.179676 57.889469,39.393669 
	C52.124958,48.855923 52.549492,57.931950 57.956573,67.378723 
	C57.601116,71.839027 57.408245,75.894157 56.951702,79.919380 
	C56.746323,81.730156 56.014393,83.481209 55.521378,85.259361 
z"/>
<path fill="#E15A6D" opacity="1.000000" stroke="none" 
	d="
M77.998482,21.037165 
	C90.193092,24.694698 96.143814,33.648117 98.541809,45.488647 
	C101.972206,62.426872 94.345482,77.389832 78.270432,84.351418 
	C77.576103,79.151909 77.401649,74.308678 76.934174,69.493904 
	C76.785370,67.961342 75.857506,66.504417 75.393280,64.670837 
	C79.253014,56.953701 78.498169,49.475327 76.192261,41.617031 
	C76.914406,39.459660 77.843941,37.659733 77.925552,35.822147 
	C78.144051,30.902445 77.999062,25.966597 77.998482,21.037165 
z"/>
<path fill="#6862D2" opacity="1.000000" stroke="none" 
	d="
M450.002289,67.840645 
	C448.123291,67.969337 446.244293,68.098022 442.799438,68.333961 
	C445.348663,70.425392 446.863708,71.668358 448.689758,73.528046 
	C449.000916,78.377220 449.001129,82.609680 449.001312,86.842133 
	C434.821838,86.805641 425.220917,78.149956 425.000183,65.203972 
	C424.715149,48.487377 433.462311,38.647850 449.580566,38.539898 
	C450.001495,42.646042 450.002350,46.238777 449.640686,49.910011 
	C445.285797,50.979168 444.192108,53.879745 444.080200,57.770290 
	C446.181580,57.911537 448.092346,58.039970 450.001953,58.608109 
	C450.001312,61.978756 450.001801,64.909698 450.002289,67.840645 
z"/>
<path fill="#A151B3" opacity="1.000000" stroke="none" 
	d="
M316.001282,67.841431 
	C314.446747,67.978683 312.892212,68.115936 311.337708,68.253189 
	C310.899048,68.801651 310.460388,69.350113 310.021729,69.898575 
	C311.529572,70.765587 313.037415,71.632599 314.719116,73.166412 
	C314.595337,78.128136 314.297760,82.423050 314.000183,86.717972 
	C299.674683,85.522911 291.989258,77.304474 291.998474,63.190365 
	C292.007996,48.594543 300.600647,39.271885 315.592651,38.543404 
	C316.000580,42.654160 316.000916,46.255352 315.668030,49.983238 
	C313.629486,52.318062 311.924194,54.526192 309.554535,57.594593 
	C312.842041,57.886654 314.421967,58.027016 316.001282,58.607273 
	C316.000824,61.978588 316.001038,64.910011 316.001282,67.841431 
z"/>
<path fill="#C151A2" opacity="1.000000" stroke="none" 
	d="
M215.005447,38.242355 
	C228.401459,39.730610 233.578568,45.182957 233.863602,58.449417 
	C234.045624,66.921631 233.954834,75.399796 233.969177,83.875320 
	C233.969986,84.353432 233.814499,84.831802 233.672775,85.650986 
	C227.971741,85.650986 222.257339,85.650986 216.563812,85.650986 
	C216.048843,83.866791 215.551697,82.144325 214.535156,80.160019 
	C213.678650,77.604530 213.341553,75.310875 213.191467,72.712677 
	C214.237823,70.649223 215.328918,68.961754 215.898590,67.113556 
	C216.631577,64.735481 215.348236,63.777477 213.000153,63.640038 
	C213.006668,60.627121 213.013412,58.055405 213.020142,55.483688 
	C213.915726,55.218311 214.811325,54.952934 216.065872,54.581192 
	C215.399628,53.505291 214.843903,52.607880 214.180923,50.997417 
	C214.384262,46.270363 214.694855,42.256359 215.005447,38.242355 
z"/>
<path fill="#B651A8" opacity="1.000000" stroke="none" 
	d="
M264.000732,85.840042 
	C251.763046,86.478279 251.770386,86.475845 248.020508,75.162743 
	C244.114624,63.378986 240.192642,51.600571 236.010773,39.016556 
	C242.502441,39.016556 248.525238,38.920574 254.537735,39.126205 
	C255.381729,39.155071 256.689941,40.541786 256.912476,41.501827 
	C259.155548,51.178261 261.216949,60.896812 263.665253,71.268570 
	C264.000977,76.569084 264.000854,81.204559 264.000732,85.840042 
z"/>
<path fill="#AD51AD" opacity="1.000000" stroke="none" 
	d="
M264.454224,85.904266 
	C264.000854,81.204559 264.000977,76.569084 264.001282,71.468231 
	C266.005341,61.796379 268.170044,52.620480 269.930023,43.367603 
	C270.586212,39.917786 271.926331,38.681568 275.474548,38.914471 
	C280.427429,39.239571 285.417572,38.996399 291.158142,38.996399 
	C288.598816,46.576248 286.220612,53.713997 283.777039,60.829304 
	C281.515533,67.414482 278.937683,73.903107 276.974182,80.574089 
	C275.763580,84.687103 273.925598,86.891403 269.385895,86.043182 
	C267.939026,85.772850 266.402985,85.979881 264.454224,85.904266 
z"/>
<path fill="#CB549F" opacity="1.000000" stroke="none" 
	d="
M212.619629,55.447968 
	C213.013412,58.055405 213.006668,60.627121 212.671234,63.818661 
	C210.746857,64.760551 208.740768,64.601021 207.657471,65.524269 
	C206.242569,66.730125 204.574951,68.972176 204.841644,70.435768 
	C205.097702,71.840958 207.551636,73.144577 209.298859,73.860481 
	C210.257874,74.253433 211.751740,73.341042 213.004456,73.017220 
	C213.341553,75.310875 213.678650,77.604530 214.198883,80.323318 
	C209.551865,86.714737 202.697342,88.675278 195.761749,86.074249 
	C190.276413,84.017105 186.975586,78.744789 187.117004,72.266273 
	C187.273163,65.112022 191.069458,59.990993 198.568573,57.861828 
	C202.993851,56.605396 207.660828,56.200237 212.619629,55.447968 
z"/>
<path fill="#9159BF" opacity="1.000000" stroke="none" 
	d="
M357.004303,85.848785 
	C353.023621,85.848785 349.042969,85.848785 344.676056,85.848785 
	C344.676056,70.346252 344.676056,54.975719 344.676056,39.018364 
	C348.536316,39.018364 352.309631,39.018364 356.541748,39.542816 
	C357.001831,55.327770 357.003082,70.588280 357.004303,85.848785 
z"/>
<path fill="#D9568C" opacity="1.000000" stroke="none" 
	d="
M141.996887,38.246960 
	C148.956055,38.695679 153.502670,42.569054 155.724625,48.851196 
	C159.022369,58.174835 158.706833,67.494461 154.240692,76.482353 
	C151.825897,81.341995 148.134933,84.733871 142.396667,85.646683 
	C142.007462,69.528664 142.002182,53.887810 141.996887,38.246960 
z"/>
<path fill="#9852B8" opacity="1.000000" stroke="none" 
	d="
M316.001251,49.856548 
	C316.000916,46.255352 316.000580,42.654160 316.000763,38.605778 
	C332.988037,37.428177 341.744049,48.240303 339.579041,67.970619 
	C332.085693,67.970619 324.508209,67.970619 316.466003,67.906021 
	C316.001038,64.910011 316.000824,61.978588 316.416199,58.545582 
	C318.617065,58.043999 320.402344,58.043999 322.319916,58.043999 
	C322.472260,53.040691 320.891663,50.108368 316.001251,49.856548 
z"/>
<path fill="#8857C0" opacity="1.000000" stroke="none" 
	d="
M357.450409,85.910812 
	C357.003082,70.588280 357.001831,55.327770 357.002441,39.609238 
	C359.139618,39.151211 361.274933,39.151211 363.761078,39.151211 
	C363.901428,41.249374 364.030457,43.178467 364.215485,45.944805 
	C368.076660,40.252136 372.599670,36.887424 379.600586,38.425396 
	C379.600586,43.867992 379.600586,49.118877 379.600586,54.675041 
	C378.283936,54.485214 377.184113,54.312695 376.080444,54.169773 
	C368.556244,53.195423 364.251709,56.742683 364.049957,64.430794 
	C363.867096,71.398582 364.011292,78.374954 364.011292,85.972847 
	C361.746033,85.972847 359.821259,85.972847 357.450409,85.910812 
z"/>
<path fill="#5E65D8" opacity="1.000000" stroke="none" 
	d="
M450.003204,49.831516 
	C450.002350,46.238777 450.001495,42.646042 450.001526,38.606392 
	C466.286194,37.799755 474.666687,48.607143 472.591766,67.970673 
	C465.424225,67.970673 458.177826,67.970673 450.466858,67.905655 
	C450.001801,64.909698 450.001312,61.978756 450.400024,58.546364 
	C452.313690,58.044918 453.828156,58.044918 455.369415,58.044918 
	C455.414734,53.418266 454.125793,50.603397 450.003204,49.831516 
z"/>
<path fill="#7C5DC8" opacity="1.000000" stroke="none" 
	d="
M404.015228,50.045185 
	C401.097168,52.171211 401.653015,53.872047 404.715454,55.909309 
	C404.517151,58.629566 404.313385,60.722633 403.985809,62.796154 
	C403.595978,65.264206 403.099854,67.715485 402.649811,70.174026 
	C399.229858,68.917786 395.788300,67.716980 392.394867,66.392769 
	C386.814850,64.215271 383.220581,60.435116 383.133850,54.132710 
	C383.047455,47.852448 385.820038,43.081417 391.662109,40.781700 
	C395.292633,39.352543 399.312531,38.912624 403.578857,38.541698 
	C404.005066,42.718189 404.010132,46.381687 404.015228,50.045185 
z"/>
<path fill="#DA5585" opacity="1.000000" stroke="none" 
	d="
M141.573578,38.151665 
	C142.002182,53.887810 142.007462,69.528664 142.022614,85.647804 
	C138.898010,86.244194 135.763504,86.362282 132.315155,85.773499 
	C132.001541,81.077797 132.001801,77.088982 132.300003,72.915222 
	C138.078812,69.687813 138.289520,64.420189 137.669281,59.284786 
	C136.809433,52.165405 132.248550,50.299950 126.014435,54.047604 
	C125.450439,50.909313 124.886452,47.771023 124.168633,44.279114 
	C129.199097,40.428982 134.560989,37.450939 141.573578,38.151665 
z"/>
<path fill="#745FCC" opacity="1.000000" stroke="none" 
	d="
M402.762238,70.537399 
	C403.099854,67.715485 403.595978,65.264206 403.985809,62.796154 
	C404.313385,60.722633 404.517151,58.629566 404.949402,56.144203 
	C407.487793,56.459347 409.902496,57.043503 412.207764,57.916626 
	C418.780426,60.406036 421.842621,64.680656 421.689789,70.896904 
	C421.533936,77.233658 417.593536,82.758408 411.569275,84.823944 
	C409.413910,85.562958 407.137909,85.950104 404.480774,86.002579 
	C403.635925,81.638527 403.227203,77.769745 402.818512,73.900955 
	C402.837250,72.900894 402.855957,71.900833 402.762238,70.537399 
z"/>
<path fill="#E35C64" opacity="1.000000" stroke="none" 
	d="
M77.631378,20.898991 
	C77.999062,25.966597 78.144051,30.902445 77.925552,35.822147 
	C77.843941,37.659733 76.914406,39.459660 75.935814,41.401024 
	C70.187439,34.870560 66.024673,34.284328 58.019302,39.063511 
	C57.488003,33.179676 56.956699,27.295843 56.090858,21.130066 
	C62.914165,17.993835 70.085251,18.399538 77.631378,20.898991 
z"/>
<path fill="#E35C64" opacity="1.000000" stroke="none" 
	d="
M75.286125,65.012886 
	C75.857506,66.504417 76.785370,67.961342 76.934174,69.493904 
	C77.401649,74.308678 77.576103,79.151909 77.926941,84.382812 
	C70.832634,87.669022 63.547325,87.699928 55.847507,85.509491 
	C56.014393,83.481209 56.746323,81.730156 56.951702,79.919380 
	C57.408245,75.894157 57.601116,71.839027 58.287762,67.524277 
	C65.441544,71.515434 69.279480,70.998016 75.286125,65.012886 
z"/>
<path fill="#5970DE" opacity="1.000000" stroke="none" 
	d="
M491.998718,68.010513 
	C487.561249,68.010651 483.619781,68.010651 479.396942,68.010651 
	C479.396942,63.644230 479.396942,59.733734 479.396942,55.401882 
	C487.523529,55.401882 495.712250,55.401882 504.297485,55.401882 
	C504.297485,59.297398 504.297485,63.327461 504.297485,68.010384 
	C500.330048,68.010384 496.412415,68.010384 491.998718,68.010513 
z"/>
<path fill="#4598F4" opacity="1.000000" stroke="none" 
	d="
M601.466431,85.904221 
	C601.001160,80.916824 601.000549,75.993660 601.000854,70.615250 
	C607.765259,70.160004 614.528687,70.160004 621.644104,70.160004 
	C621.644104,75.325752 621.644104,80.348877 621.644104,85.968468 
	C615.056274,85.968468 608.493713,85.968468 601.466431,85.904221 
z"/>
<path fill="#D65498" opacity="1.000000" stroke="none" 
	d="
M170.444733,17.066124 
	C171.193069,17.019176 171.525589,16.995758 171.857803,16.999460 
	C179.534760,17.085018 184.279739,20.921930 183.752075,26.614246 
	C183.227097,32.277409 177.585846,35.840508 170.588531,34.928532 
	C165.817322,34.306690 162.252335,30.931932 161.919662,26.722210 
	C161.528671,21.774355 163.684494,19.216888 170.444733,17.066124 
z"/>
<path fill="#CA539F" opacity="1.000000" stroke="none" 
	d="
M214.554688,38.144867 
	C214.694855,42.256359 214.384262,46.270363 214.013641,50.703331 
	C206.810745,51.354218 199.667862,51.586136 191.856064,51.839775 
	C191.856064,49.876293 191.513092,46.729843 192.015472,43.724716 
	C192.233368,42.421398 194.059830,40.621460 195.382904,40.399063 
	C201.579910,39.357388 207.856064,38.786469 214.554688,38.144867 
z"/>
<path fill="#9A51B7" opacity="1.000000" stroke="none" 
	d="
M314.454010,86.821609 
	C314.297760,82.423050 314.595337,78.128136 314.944641,73.421860 
	C321.485260,73.010513 327.974152,73.010513 335.154388,73.010513 
	C335.154388,75.646980 335.420197,78.913902 335.014130,82.095062 
	C334.866577,83.250870 333.225800,84.950867 332.077484,85.119896 
	C326.388947,85.957230 320.637268,86.365662 314.454010,86.821609 
z"/>
<path fill="#7C5DC8" opacity="1.000000" stroke="none" 
	d="
M402.435059,73.995972 
	C403.227203,77.769745 403.635925,81.638527 404.065918,86.011169 
	C397.238251,86.306618 390.389252,86.098213 383.346680,85.883926 
	C383.346680,80.333717 383.346680,76.060143 383.346680,72.722000 
	C389.574158,73.177780 395.812866,73.634384 402.435059,73.995972 
z"/>
<path fill="#6065D7" opacity="1.000000" stroke="none" 
	d="
M449.455933,86.907051 
	C449.001129,82.609680 449.000916,78.377220 449.000488,73.698921 
	C455.185913,73.253075 461.371643,73.253075 468.049469,73.253075 
	C467.727631,72.694130 468.009613,72.963394 468.030151,73.251305 
	C468.864319,84.943565 467.756104,86.193649 455.847778,86.883949 
	C453.873657,86.998390 451.889862,86.946823 449.455933,86.907051 
z"/>
<path fill="#755FCC" opacity="1.000000" stroke="none" 
	d="
M404.443726,50.051498 
	C404.010132,46.381687 404.005066,42.718189 404.000305,38.604286 
	C404.494568,38.105324 404.988129,38.019455 405.482605,38.013668 
	C418.056000,37.866592 419.178558,39.108398 417.770233,51.953350 
	C413.468994,51.321220 409.170624,50.689514 404.443726,50.051498 
z"/>
<path fill="#DB5782" opacity="1.000000" stroke="none" 
	d="
M132.002060,73.100159 
	C132.001801,77.088982 132.001541,81.077797 132.002411,85.527946 
	C129.564301,84.873955 127.125069,83.758636 124.325066,82.789459 
	C123.922684,78.380302 123.881073,73.825012 124.403442,69.305496 
	C127.312309,70.594238 129.657181,71.847198 132.002060,73.100159 
z"/>
<path fill="#FEFAFB" opacity="1.000000" stroke="none" 
	d="
M132.300003,72.915222 
	C129.657181,71.847198 127.312309,70.594238 124.785416,69.077408 
	C124.980331,64.128067 125.357254,59.442619 125.874298,54.402386 
	C132.248550,50.299950 136.809433,52.165405 137.669281,59.284786 
	C138.289520,64.420189 138.078812,69.687813 132.300003,72.915222 
z"/>
<path fill="#FFFDFD" opacity="1.000000" stroke="none" 
	d="
M75.393280,64.670837 
	C69.279480,70.998016 65.441544,71.515434 58.342873,67.106918 
	C52.549492,57.931950 52.124958,48.855923 57.889465,39.393669 
	C66.024673,34.284328 70.187439,34.870560 75.756584,41.741299 
	C78.498169,49.475327 79.253014,56.953701 75.393280,64.670837 
z"/>
<path fill="#FAFAFE" opacity="1.000000" stroke="none" 
	d="
M449.640686,49.910011 
	C454.125793,50.603397 455.414734,53.418266 455.369415,58.044918 
	C453.828156,58.044918 452.313690,58.044918 450.401154,58.106659 
	C448.092346,58.039970 446.181580,57.911537 444.080200,57.770290 
	C444.192108,53.879745 445.285797,50.979168 449.640686,49.910011 
z"/>
<path fill="#FCFAFD" opacity="1.000000" stroke="none" 
	d="
M315.668030,49.983238 
	C320.891663,50.108368 322.472260,53.040691 322.319916,58.043999 
	C320.402344,58.043999 318.617065,58.043999 316.416870,58.105690 
	C314.421967,58.027016 312.842041,57.886654 309.554535,57.594593 
	C311.924194,54.526192 313.629486,52.318062 315.668030,49.983238 
z"/>
<path fill="#FDF9FB" opacity="1.000000" stroke="none" 
	d="
M213.191467,72.712677 
	C211.751740,73.341042 210.257874,74.253433 209.298859,73.860481 
	C207.551636,73.144577 205.097702,71.840958 204.841644,70.435768 
	C204.574951,68.972176 206.242569,66.730125 207.657471,65.524269 
	C208.740768,64.601021 210.746857,64.760551 212.671448,64.259857 
	C215.348236,63.777477 216.631577,64.735481 215.898590,67.113556 
	C215.328918,68.961754 214.237823,70.649223 213.191467,72.712677 
z"/>
</svg>